# xmcd
#
# Track frame offsets:
#	150
#	19880
#	32972
#	44167
#	63205
#	72042
#	93585
#	107520
#	120837
#	129595
#	142180
#	152022
#	166982
#	178475
#	190767
#	200825
#	213040
#	229335
#	242932
#	254440
#	271265
#	288230
#	299695
#	317382
#
# Disc length: 4350 seconds
#
# Revision: 0
# Processed by: cddbd v1.5.2PL0 Copyright (c) Steve Scherf et al.
# Submitted via: audiograbber 1.83.01
#
DISCID=7010fc18
DTITLE=Sambler - Golden HIT-MEMORIES  -  Die Welthits des Jahrhunderts
DYEAR=1900
DGENRE=
TTITLE0=Los Rupay - El còndor pasa
TTITLE1=Gamley, Douglas  - Eine Schwarzwaldfahrt
TTITLE2=Almeida, Laurindo  - The Girl From Ipanema
TTITLE3=Gregory, John  - Chariots Of Fire  (Thema)
TTITLE4=Whittaker, Roger  - Maxican Whistler
TTITLE5=London Promenade Orchestra - Schiwago-Melodie
TTITLE6=Goya, Francis  - Guitar Tango
TTITLE7=Brasseur, Andrè  - Early Bird
TTITLE8=Reno, Don  and Bobby Thompson - The Cropple Creek Quartet - Foggy Mountai
TTITLE8=n Breakdown
TTITLE9=Shadows ,The  - Atlantis
TTITLE10=Champs, The  - Tequila
TTITLE11=Wilkenson, Hillary  Major  - River Kwai Marsch
TTITLE12=Hot Butter - Popcorn
TTITLE13=Levins, Hank Singers, The  - I Was Kaiser Bil's Batman
TTITLE14=Percival, Norman  - Once Upon A Time In West
TTITLE15=Alexander, Kuno  - Bilitis
TTITLE16=Zacharias, Helmut  - Rèverie
TTITLE17=Hughes, Gary  - A Summer Place
TTITLE18=London Cinema Symphony Orchestra - Zorbas Tanz
TTITLE19=National Philharmonic Orchestra - Midnight In Moscow
TTITLE20=Original Salon-Ensemble Prima Carezza - Jalousie
TTITLE21=Alexander, Kuno  - Säbeltanz
TTITLE22=Romantic Strings, The  - Bolero
TTITLE23=London Promenade Orchestra - Also sprach Zarathustra
EXTD=
EXTT0=
EXTT1=
EXTT2=
EXTT3=
EXTT4=
EXTT5=
EXTT6=
EXTT7=
EXTT8=
EXTT9=
EXTT10=
EXTT11=
EXTT12=
EXTT13=
EXTT14=
EXTT15=
EXTT16=
EXTT17=
EXTT18=
EXTT19=
EXTT20=
EXTT21=
EXTT22=
EXTT23=
PLAYORDER=
